# xmcd
#
# Track frame offsets:
#  150
#  13416
#  26816
#  39848
#  54285
#  66483
#  78538
#  90439
#  103033
#  115644
#  128420
#  142027
#  155272
#  168785
#  181880
#  194824
#  207969
#
# Disc length: 2952 seconds
#
# Revision: 1
# Processed by: cddbd v1.5.1PL2 Copyright (c) Steve Scherf et al.
# Submitted via: Collectorz.com_Music_Collector 6.11
#
DISCID=e10b8611
DTITLE=Billy Eckstine - Quadromania: I Ain't Like That [CD1)
DYEAR=2005
DGENRE=Pop Classic Band-Vocal - Pop Classic Vocal
TTITLE0=I've Got a Date with Rhythm
TTITLE1=I Stay in the Mood for You
TTITLE2=Good Jelly Blues
TTITLE3=Blowing the Blues Away
TTITLE4=The Real Thing Happened to Me
TTITLE5=If That's the Way You Feel
TTITLE6=I Want to Talk About You
TTITLE7=Lonesome Lover Blues
TTITLE8=A Cottage for Sale
TTITLE9=I Love the Rhythm in a Riff
TTITLE10=Last Night
TTITLE11=A Penny for Your Thoughts
TTITLE12=My Deep Blue Dream
TTITLE13=Prisoner of Love
TTITLE14=I Ain't Like That
TTITLE15=I'm in the Mood for Love
TTITLE16=You Call It Madness (But I Call it Love)
EXTD=
EXTT0=
EXTT1=
EXTT2=
EXTT3=
EXTT4=
EXTT5=
EXTT6=
EXTT7=
EXTT8=
EXTT9=
EXTT10=
EXTT11=
EXTT12=
EXTT13=
EXTT14=
EXTT15=
EXTT16=
PLAYORDER=
